<svg width="119" height="154" viewBox="0 0 119 154" fill="none" xmlns="http://www.w3.org/2000/svg">
<path d="M72.3891 86.9413C71.0307 87.2456 69.7077 87.8091 68.5022 88.5965C65.3614 90.5978 63.5341 93.4546 64.421 94.9767C65.308 96.4988 68.5731 96.1095 71.7138 94.1082C72.9356 93.3486 74.021 92.3779 74.9032 91.2559C75.3125 90.7138 75.386 90.0383 75.0908 89.5334L73.9386 87.556C73.6454 87.0495 73.0374 86.8086 72.3891 86.9413Z" fill="#D5D6DB"/>
<path d="M64.5021 59.9482C63.5171 60.169 62.5577 60.5778 61.6834 61.1488C59.4066 62.5996 58.0808 64.671 58.7234 65.7738C59.366 66.8766 61.7345 66.5941 64.0111 65.1434C64.897 64.5923 65.6839 63.8881 66.3237 63.0744C66.6202 62.6815 66.6733 62.1922 66.4593 61.8261L65.6251 60.3943C65.4128 60.0271 64.9722 59.8521 64.5021 59.9482Z" fill="#D5D6DB"/>
<path d="M51.688 61.0787C51.4687 61.0542 51.2349 61.1126 51.0322 61.2421L45.684 64.6503C45.2366 64.9346 45.0576 65.4819 45.2845 65.8731C45.3364 65.9627 45.4075 66.0393 45.4937 66.0983L58.6753 75.1832L76.5088 63.8185L51.688 61.0787Z" fill="#029BC5"/>
<path d="M108.065 59.794L59.5329 90.3461L30.8201 101.772L16.177 104.682L14.566 101.945L95.4612 51.9985C97.872 50.5036 100.558 49.586 103.246 49.3389C104.424 49.237 105.587 49.2762 106.708 49.455C107.702 49.6057 108.645 49.8964 109.508 50.3185C110.472 50.7967 112.307 50.8519 112.901 51.8047C112.903 51.8032 114.305 56.1776 108.065 59.794Z" fill="#E1E6E9"/>
<path d="M60.1762 86.3036L39.1809 119.774C38.9187 120.244 39.0744 120.77 39.5283 120.949C39.8068 121.059 40.1477 121.016 40.4341 120.834L45.7781 117.444C46.806 116.791 47.7161 115.963 48.4523 115.009L89.1686 67.1404L60.1762 86.3036Z" fill="#029BC5"/>
<path d="M7.19662 85.1861C6.8464 85.0664 6.42961 85.1285 6.07778 85.3525L1.66029 88.1659C1.05837 88.549 0.818522 89.2854 1.12438 89.8111C1.18266 89.911 1.25836 89.999 1.3491 90.0714L13.7259 99.9838L26.7389 91.8557L7.19662 85.1861Z" fill="#029BC5"/>
<path d="M17.8743 101.771L11.2128 111.1C11.1152 111.234 11.1381 111.403 11.2641 111.476C11.3549 111.529 11.4789 111.519 11.5797 111.452L15.708 108.836C15.74 108.815 15.7691 108.79 15.7931 108.761L25.5266 96.9261L17.8743 101.771Z" fill="#029BC5"/>
<path d="M105.911 49.8572C104.757 49.6718 103.559 49.6322 102.346 49.7388C101.165 51.3899 100.411 53.2446 100.157 55.118C100.139 55.4943 100.442 55.7652 100.835 55.723C100.957 55.7098 101.079 55.6669 101.188 55.5981L108.796 50.7538C107.906 50.3152 106.935 50.0134 105.911 49.8572Z" fill="#029BC5"/>
<path d="M89.3322 58.7653L94.2992 55.6284L98.9258 63.4974L93.9588 66.6343L89.3322 58.7653Z" fill="#D5D6DB"/>
<path d="M86.2066 61.8775C85.6081 62.2567 85.3688 62.9855 85.6727 63.5052L86.165 64.3472C86.4889 64.8536 87.2282 64.9427 87.8164 64.546C88.3763 64.1682 88.6017 63.4815 88.3319 62.9745L87.8396 62.1325C87.536 61.6132 86.8052 61.499 86.2066 61.8775Z" fill="#3A556A"/>
<path d="M81.7423 64.65C81.1437 65.0291 80.9045 65.7579 81.2084 66.2777L81.7007 67.1196C82.0245 67.6261 82.7638 67.7152 83.3521 67.3185C83.9119 66.9407 84.1373 66.254 83.8676 65.747L83.3752 64.905C83.0714 64.3859 82.3406 64.2716 81.7423 64.65Z" fill="#3A556A"/>
<path d="M77.2764 67.4233C76.6785 67.803 76.4401 68.5309 76.7438 69.0501L77.2361 69.8921C77.5599 70.3986 78.2992 70.4876 78.8875 70.0909C79.4473 69.7131 79.6727 69.0265 79.403 68.5195L78.9106 67.6775C78.6068 67.1578 77.8752 67.044 77.2764 67.4233Z" fill="#3A556A"/>
<path d="M72.8121 70.1957C72.2142 70.5754 71.9758 71.3033 72.2794 71.8226L72.7717 72.6646C73.0956 73.171 73.8348 73.2601 74.4231 72.8634C74.9829 72.4856 75.2084 71.7989 74.9386 71.2919L74.4463 70.4499C74.1422 69.9304 73.4106 69.8166 72.8121 70.1957Z" fill="#3A556A"/>
<path d="M68.3481 72.9684C67.7499 73.3482 67.5113 74.0764 67.8151 74.5959L68.3077 75.4383C68.6114 75.9575 69.3427 76.0712 69.941 75.6923C70.5394 75.3133 70.7783 74.5851 70.4746 74.0658L69.982 73.2235C69.6791 72.7037 68.9481 72.5892 68.3494 72.9676C68.3489 72.9679 68.3486 72.9681 68.3481 72.9684Z" fill="#3A556A"/>
<path d="M63.8837 75.7408C63.2855 76.1207 63.047 76.8489 63.3508 77.3684L63.8434 78.2107C64.147 78.73 64.8783 78.8437 65.4767 78.4647C66.075 78.0857 66.3139 77.3575 66.0103 76.8383L65.5177 75.9959C65.2148 75.4762 64.4838 75.3617 63.885 75.74C63.8845 75.7404 63.884 75.7407 63.8837 75.7408Z" fill="#3A556A"/>
<path d="M59.4191 78.5134C58.8209 78.8932 58.5824 79.6214 58.8862 80.1409L59.3788 80.9832C59.6832 81.502 60.4148 81.6145 61.0125 81.2351C61.6092 80.8562 61.8476 80.1296 61.5454 79.6109L61.0528 78.7686C60.7492 78.249 60.018 78.1347 59.4191 78.5134Z" fill="#3A556A"/>
<path d="M54.9545 81.2859C54.3563 81.6657 54.1178 82.3939 54.4216 82.9134L54.9142 83.7558C55.2186 84.2746 55.9502 84.3871 56.5479 84.0076C57.1446 83.6288 57.383 82.9021 57.0808 82.3835L56.5882 81.5411C56.2846 81.0215 55.5534 80.9072 54.9545 81.2859Z" fill="#3A556A"/>
<path d="M50.4903 84.0583C49.8921 84.4381 49.6535 85.1663 49.9573 85.6858L50.4499 86.5281C50.7543 87.0469 51.486 87.1595 52.0837 86.78C52.6804 86.4011 52.9188 85.6745 52.6165 85.1559L52.1239 84.3136C51.8201 83.7941 51.0889 83.6798 50.4903 84.0583Z" fill="#3A556A"/>
<path d="M46.0245 86.8315C45.4261 87.2105 45.1872 87.9387 45.4909 88.458L45.4915 88.4591L45.9841 89.3014C46.2885 89.8202 47.0201 89.9328 47.6179 89.5533C48.2146 89.1744 48.453 88.4478 48.1507 87.9291L47.6581 87.0868C47.3546 86.5671 46.6233 86.4528 46.0245 86.8315Z" fill="#3A556A"/>
<path d="M41.5612 89.6032C40.9629 89.9822 40.724 90.7104 41.0276 91.2296L41.0283 91.2307L41.5209 92.073C41.8253 92.5918 42.5569 92.7044 43.1546 92.3249C43.7514 91.9461 43.9898 91.2194 43.6875 90.7008L43.1949 89.8585C42.8911 89.339 42.1599 89.2247 41.5612 89.6032Z" fill="#3A556A"/>
</svg>
